<?xml version="1.0" encoding="UTF-8"?>
<svg width="841.9" height="595.3" viewBox="-420.9 -297.6 841.9 595.3" xmlns="http://www.w3.org/2000/svg">
  <g fill="#61DAFB">
    <path d="M0-148.8c0 0 73.2-55.1 219.6-55.1s219.6 55.1 219.6 55.1S366.4 0 366.4 0s-73.2 55.1-219.6 55.1S-73.2 0-73.2 0 0-148.8 0-148.8z"/>
    <path d="M0 0c0 0 73.2 55.1 219.6 55.1s219.6-55.1 219.6-55.1S366.4-148.8 366.4-148.8s-73.2-55.1-219.6-55.1S-73.2-148.8-73.2-148.8 0 0 0 0z"/>
    <path d="M0 148.8c0 0 73.2 55.1 219.6 55.1s219.6-55.1 219.6-55.1S366.4 0 366.4 0s-73.2-55.1-219.6-55.1S-73.2 0-73.2 0 0 148.8 0 148.8z"/>
  </g>
</svg>